<?xml version="1.0" encoding="UTF-8"?>
<svg version="1.1" xmlns="http://www.w3.org/2000/svg" width="255" height="246">
<path d="M0 0 C17.62282053 14.99957625 28.24309115 35.9473389 30.5625 59 C32.02432872 78.64609205 29.50644421 103.4731851 16.37109375 118.953125 C15.47583984 119.96632812 15.47583984 119.96632812 14.5625 121 C14.01722656 121.67546875 13.47195312 122.3509375 12.91015625 123.046875 C8.41352642 128.50631263 3.19042395 132.74841926 -2.4375 137 C-3.12714844 137.54140625 -3.81679687 138.0828125 -4.52734375 138.640625 C-6.4375 140 -6.4375 140 -9.8125 141.4375 C-13.45256884 142.86745541 -13.45256884 142.86745541 -16.4375 145.0625 C-19.7575125 147.20667474 -22.62304626 148.01350334 -26.4375 149 C-31.46436494 150.64103775 -31.46436494 150.64103775 -36.125 153.08203125 C-43.16679027 157.53030502 -51.42796524 156.32766279 -59.4375 156 C-59.7675 155.01 -60.0975 154.02 -60.4375 153 C-61.50226563 152.84144531 -62.56703125 152.68289062 -63.6640625 152.51953125 C-85.09696856 149.15317125 -102.22744653 141.40960228 -117.4375 126 C-118.17742187 125.25878906 -118.91734375 124.51757812 -119.6796875 123.75390625 C-135.91395806 106.54052599 -142.40883055 84.46714428 -141.7890625 61.265625 C-140.58461376 37.50592394 -128.79768842 15.92274834 -111.41674805 0.04858398 C-79.61627373 -27.49941588 -31.95442861 -26.11319633 0 0 Z " fill="#020202" transform="translate(182.4375,55)"/>
<path d="M0 0 C20.52122564 17.18952942 34.3841848 41.50820335 37.85546875 68.1875 C40.54755214 101.8954174 29.98750776 129.24742931 8.3671875 154.7421875 C-7.56605583 171.92273018 -32.71081386 183.17835858 -55.87597656 184.88134766 C-87.34611775 186.05188947 -112.95775136 178.60767717 -136.8671875 157.66015625 C-137.62773437 156.99628906 -138.38828125 156.33242187 -139.171875 155.6484375 C-153.60563906 142.16493905 -163.06286795 123.63601137 -167.8671875 104.66015625 C-168.09277344 103.79132813 -168.31835938 102.9225 -168.55078125 102.02734375 C-174.37029974 74.4950011 -168.02811867 45.97366361 -152.8671875 22.66015625 C-150.35223029 19.1812952 -147.67205074 15.90760147 -144.8671875 12.66015625 C-144.26519531 11.91378906 -143.66320312 11.16742188 -143.04296875 10.3984375 C-107.85128332 -31.87585129 -41.24850198 -33.49563579 0 0 Z M-107.1796875 -3.52734375 C-107.84500488 -3.1811499 -108.51032227 -2.83495605 -109.19580078 -2.47827148 C-131.40570727 9.31686579 -148.1255165 28.80973577 -156.05859375 52.75 C-162.89979163 77.3717025 -161.09356427 102.74595737 -148.89453125 125.47216797 C-136.08621146 148.02674251 -115.64704213 164.20887129 -90.8671875 171.66015625 C-89.16175781 172.20929688 -89.16175781 172.20929688 -87.421875 172.76953125 C-80.88440571 174.3503448 -74.05498748 174.05580912 -67.3671875 174.03515625 C-66.64965302 174.03394775 -65.93211853 174.03273926 -65.19284058 174.03149414 C-54.60626664 173.98295835 -44.86283763 173.59177864 -34.8671875 169.66015625 C-34.18205078 169.39170898 -33.49691406 169.12326172 -32.79101562 168.84667969 C-22.30110027 164.62170486 -13.31582195 159.16014364 -4.8671875 151.66015625 C-4.35317383 151.20656738 -3.83916016 150.75297852 -3.30957031 150.28564453 C13.21544612 135.42140777 25.45875538 114.68093215 27.43286133 92.25097656 C27.56839817 88.77707062 27.60040556 85.32400615 27.5703125 81.84765625 C27.56346436 80.62369141 27.55661621 79.39972656 27.54956055 78.13867188 C27.08615109 51.9378135 15.29058144 29.37241305 -3.02636719 11.06420898 C-19.51206144 -4.73415549 -40.80504097 -11.91028048 -63.3293457 -11.78588867 C-65.66642934 -11.77739195 -68.00104734 -11.80622209 -70.33789062 -11.83789062 C-83.43094468 -11.9006682 -95.49221853 -9.79916759 -107.1796875 -3.52734375 Z " fill="#030403" transform="translate(192.8671875,40.33984375)"/>
<path d="M0 0 C4.00797136 2.04042178 6.63903006 4.19132929 9 8 C9.72348588 12.7594022 9.57719758 17.40421844 7.9375 21.9375 C2.08047137 28.17240145 -7.08151196 30.46103597 -14.88671875 33.3515625 C-16.23498687 33.85613188 -17.58303121 34.36129961 -18.93086243 34.86703491 C-22.46025709 36.18985324 -25.99215115 37.50585488 -29.52478027 38.82000732 C-35.18909718 40.92834044 -40.84971224 43.04658088 -46.50995827 45.16581345 C-48.48110229 45.9026182 -50.45342812 46.63618401 -52.4259491 47.36929321 C-53.624319 47.81670868 -54.8226889 48.26412415 -56.05737305 48.72509766 C-57.11103561 49.11718414 -58.16469818 49.50927063 -59.25028992 49.91323853 C-61.58024356 50.83410065 -63.78539239 51.83350844 -66 53 C-66.04241723 55.33294775 -66.04092937 57.66702567 -66 60 C-64.8543996 61.35194457 -64.8543996 61.35194457 -61.80078125 61.37890625 C-55.83400845 61.29535286 -50.55642069 58.8872853 -45.08602905 56.69717407 C-43.16218093 55.92736887 -41.23235388 55.17481553 -39.30004883 54.42651367 C-35.52838929 52.96349882 -31.76392942 51.48279117 -28 50 C-24.40237301 48.58632002 -20.79892854 47.19048189 -17.1875 45.8125 C-16.46135498 45.52173584 -15.73520996 45.23097168 -14.98706055 44.93139648 C-9.58770367 42.87804814 -4.47263731 41.89981933 1.20703125 43.69921875 C4.9856311 46.02521817 7.45184853 47.81088426 9 52 C9.64104442 56.78379397 9.48962763 60.72696816 7.75 65.25 C-1.62461522 74.62461522 -17.82662978 78.15995753 -30 82.5625 C-34.06386171 84.03924975 -38.12626599 85.51994574 -42.1875 87.00390625 C-43.62790649 87.53016098 -43.62790649 87.53016098 -45.09741211 88.06704712 C-56.2977082 91.3339336 -56.2977082 91.3339336 -66 97 C-66.07148199 98.35243917 -66.08399454 99.70834367 -66.0625 101.0625 C-66.041875 102.361875 -66.02125 103.66125 -66 105 C-65.154375 105.26554687 -64.30875 105.53109375 -63.4375 105.8046875 C-58.62766295 107.47719902 -54.06405862 109.63730646 -49.4375 111.7578125 C-45.9767975 113.00838454 -43.64000872 113.41267541 -40 113 C-37.71943701 111.11625538 -37.71943701 111.11625538 -37.5625 108.0625 C-37.706875 107.051875 -37.85125 106.04125 -38 105 C-41.65478235 102.40496867 -45.74230291 100.66258959 -49.8125 98.8125 C-50.97394531 98.28269531 -52.13539062 97.75289063 -53.33203125 97.20703125 C-54.21246094 96.80871094 -55.09289062 96.41039062 -56 96 C-52.88434045 92.88434045 -50.0352818 92.11720171 -45.6875 91.625 C-39.58378903 92.24571637 -35.62186484 94.61465712 -31 98.5625 C-28.18663741 103.39796695 -28.2233037 107.52971961 -29 113 C-30.43778427 116.28636404 -32.24290115 118.70241762 -35 121 C-46.1197506 124.70658353 -55.98761076 119.84318488 -65.99047852 115.06713867 C-71.61059271 112.08262656 -74.05047707 109.05378173 -76 103 C-76.52189503 98.75028333 -76.32568755 96.63884866 -74.375 92.8125 C-70.11461079 87.76730225 -64.89440285 85.33039333 -58.77734375 83.15234375 C-58.0867688 82.8990329 -57.39619385 82.64572205 -56.68469238 82.38473511 C-55.20485673 81.84286734 -53.72372536 81.30452715 -52.24142456 80.7694397 C-49.91152867 79.92812184 -47.58534991 79.07721154 -45.26000977 78.22338867 C-42.07530859 77.05424959 -38.88961833 75.88787809 -35.703125 74.72363281 C-29.23598771 72.3571608 -22.78220845 69.95575089 -16.33816528 67.52713013 C-14.46468844 66.82272257 -12.58868183 66.12505519 -10.71264648 65.42749023 C-9.58930908 65.00411377 -8.46597168 64.5807373 -7.30859375 64.14453125 C-6.32689209 63.77690674 -5.34519043 63.40928223 -4.33374023 63.03051758 C-1.86942146 62.11023352 -1.86942146 62.11023352 0 60 C0.41666667 57 0.41666667 57 0 54 C-2.83489819 51.67617084 -2.83489819 51.67617084 -6.13085938 52.17700195 C-10.58862442 53.12520526 -14.66012635 54.53700252 -18.90625 56.16796875 C-19.74861206 56.48526443 -20.59097412 56.80256012 -21.4588623 57.12947083 C-24.14181905 58.14214788 -26.82084648 59.16480977 -29.5 60.1875 C-31.26799375 60.85544117 -33.03622116 61.5227642 -34.8046875 62.18945312 C-39.07620336 63.80303651 -43.34024119 65.43523069 -47.60058594 67.07806396 C-49.9155099 67.96753604 -52.23478227 68.8448124 -54.5546875 69.72119141 C-55.92214023 70.24703213 -57.2893441 70.77352067 -58.65625 71.30078125 C-59.84025391 71.75235596 -61.02425781 72.20393066 -62.24414062 72.66918945 C-65.25820316 73.83691879 -65.25820316 73.83691879 -67 77 C-66.68493373 80.14221967 -66.68493373 80.14221967 -66 83 C-70.625 86 -70.625 86 -74 86 C-76.01352876 81.84709692 -76.47545228 78.5960387 -76 74 C-74.9609375 72.27734375 -74.9609375 72.27734375 -73.75 70.5625 C-72.88375 68.7990625 -72.88375 68.7990625 -72 67 C-72.75186383 64.83338648 -73.84223236 63.07560592 -75.0234375 61.11328125 C-76.74571268 57.38627776 -76.05745149 53.86263529 -75 50 C-73.4375 46.9375 -73.4375 46.9375 -72 45 C-72.66 43.989375 -73.32 42.97875 -74 41.9375 C-76.14630391 38.13547593 -76.64046744 35.40321363 -76 31 C-71.870592 23.20000712 -66.05711667 20.33521958 -58.10546875 17.5390625 C-57.24045242 17.22601166 -56.3754361 16.91296082 -55.48420715 16.59042358 C-52.72181402 15.59284834 -49.95490359 14.60857924 -47.1875 13.625 C-44.46968385 12.64886416 -41.75285433 11.67001781 -39.03607178 10.69100952 C-37.25430712 10.04995316 -35.47179774 9.41096282 -33.6885376 8.77407837 C-29.54478795 7.29198098 -25.41322804 5.78840391 -21.30566406 4.20849609 C-20.57970535 3.93000824 -19.85374664 3.65152039 -19.10578918 3.36459351 C-17.16972255 2.61744545 -15.23694435 1.86179152 -13.30444336 1.10546875 C-8.77784072 -0.40886127 -4.68621769 -1.05328321 0 0 Z " fill="#F4F4F4" transform="translate(160,60)"/>
<path d="M0 0 C1.9375 1.0625 1.9375 1.0625 3 3 C3.25 6.4375 3.25 6.4375 2 10 C0.30056763 11.07197571 0.30056763 11.07197571 -1.88232422 11.9543457 C-2.69715271 12.28906891 -3.5119812 12.62379211 -4.35150146 12.96865845 C-5.22550598 13.30900116 -6.0995105 13.64934387 -7 14 C-7.86288635 14.34171234 -8.72577271 14.68342468 -9.61480713 15.03549194 C-12.44688931 16.14133524 -15.28785966 17.22068573 -18.1328125 18.29296875 C-19.16888641 18.68446609 -20.20496033 19.07596344 -21.27243042 19.47932434 C-23.44847581 20.30012058 -25.62509046 21.11940907 -27.80224609 21.93725586 C-31.12479139 23.18742151 -34.44324336 24.44806184 -37.76171875 25.70898438 C-39.88517299 26.50846002 -42.00886301 27.30730976 -44.1328125 28.10546875 C-45.11839142 28.48148727 -46.10397034 28.8575058 -47.11941528 29.24491882 C-52.09597573 31.10100632 -56.67987672 32.65606838 -62 33 C-63.9375 31.9375 -63.9375 31.9375 -65 30 C-65.375 27 -65.375 27 -65 24 C-62.955197 21.45375016 -60.95345136 20.37956309 -57.91845703 19.27001953 C-57.09975128 18.96605255 -56.28104553 18.66208557 -55.43753052 18.34890747 C-54.55322357 18.03009613 -53.66891663 17.71128479 -52.7578125 17.3828125 C-51.83845917 17.04377899 -50.91910583 16.70474548 -49.97189331 16.35543823 C-47.02573209 15.27080403 -44.0755532 14.19762193 -41.125 13.125 C-38.21826728 12.05961675 -35.31239413 10.99191743 -32.40667725 9.92376709 C-30.52492393 9.23315783 -28.6423203 8.5448608 -26.7588501 7.85894775 C-22.79503201 6.41292122 -18.84177436 4.9568245 -14.92871094 3.37792969 C-13.7946582 2.92063477 -12.66060547 2.46333984 -11.4921875 1.9921875 C-10.55487793 1.60144043 -9.61756836 1.21069336 -8.65185547 0.80810547 C-5.62427523 -0.1144954 -3.14884348 -0.21641726 0 0 Z " fill="#070707" transform="translate(158,68)"/>
<path d="M0 0 C0.66 0 1.32 0 2 0 C1.04757406 10.71479182 -2.99483365 18.95593186 -10 27 C-10.5465625 27.67804688 -11.093125 28.35609375 -11.65625 29.0546875 C-16.15499501 34.50835481 -21.3742843 38.75008747 -27 43 C-27.68964844 43.54140625 -28.37929687 44.0828125 -29.08984375 44.640625 C-31 46 -31 46 -34.375 47.4375 C-38.04485819 48.87437006 -38.04485819 48.87437006 -41.125 51.1875 C-44.14681804 53.0925592 -45.5159983 53.40988255 -49 53 C-46.52696447 50.14264138 -43.92151209 48.91468044 -40.5 47.375 C-33.81782522 44.11048759 -28.50328854 39.96375045 -23 35 C-22.21753906 34.31164062 -21.43507812 33.62328125 -20.62890625 32.9140625 C-10.87835024 23.8225562 -4.53458095 12.44161407 0 0 Z " fill="#EAEBEB" transform="translate(207,149)"/>
<path d="M0 0 C-3.24839094 3.60932327 -6.02468394 5.76651352 -10.99731445 6.15673828 C-13.27243282 6.19645419 -15.53761559 6.17457837 -17.8125 6.125 C-18.99489258 6.11146484 -18.99489258 6.11146484 -20.20117188 6.09765625 C-22.13424666 6.07422504 -24.0671638 6.03835838 -26 6 C-26.66 4.68 -27.32 3.36 -28 2 C-24.4587501 1.66213906 -20.91694184 1.33052169 -17.375 1 C-16.37597656 0.90460938 -15.37695312 0.80921875 -14.34765625 0.7109375 C-9.54861994 0.26599374 -4.82618926 -0.13177309 0 0 Z " fill="#F8F8F8" transform="translate(149,205)"/>
<path d="M0 0 C2.15625 0.37109375 2.15625 0.37109375 4 1 C-0.41541167 5.14699759 -4.31783518 7.72713407 -10 10 C-11.03125 10.721875 -12.0625 11.44375 -13.125 12.1875 C-16.14681804 14.0925592 -17.5159983 14.40988255 -21 14 C-18.4706981 11.06218542 -15.6750915 9.74815579 -12.1875 8.125 C-8.57546931 6.38651961 -5.45029032 4.7852615 -2.5 2.0625 C-1.675 1.381875 -0.85 0.70125 0 0 Z " fill="#E8E9E8" transform="translate(179,188)"/>
<path d="M0 0 C0.66 0.33 1.32 0.66 2 1 C1.67 1.33 1.34 1.66 1 2 C1.99 2.66 2.98 3.32 4 4 C0.04 4.99 -3.92 5.98 -8 7 C-7.67 5.68 -7.34 4.36 -7 3 C-3.5625 1.1875 -3.5625 1.1875 0 0 Z " fill="#101010" transform="translate(112,148)"/>
<path d="M0 0 C0.33 0.66 0.66 1.32 1 2 C-0.38552202 3.01423834 -1.78394288 4.01087002 -3.1875 5 C-3.96480469 5.556875 -4.74210938 6.11375 -5.54296875 6.6875 C-8.28336637 8.151369 -9.94100837 8.26080213 -13 8 C-10.59310197 5.27324841 -8.07528977 3.88033404 -4.8125 2.3125 C-3.91144531 1.87550781 -3.01039063 1.43851563 -2.08203125 0.98828125 C-1.39496094 0.66214844 -0.70789063 0.33601562 0 0 Z " fill="#A5A5A5" transform="translate(171,194)"/>
<path d="M0 0 C0.33 0.66 0.66 1.32 1 2 C-1.68058098 5.57410797 -4.42589203 8.31941902 -8 11 C-8.66 10.67 -9.32 10.34 -10 10 C-6.7 6.7 -3.4 3.4 0 0 Z " fill="#FAFAF9" transform="translate(193,177)"/>
<path d="M0 0 C0.66 0 1.32 0 2 0 C1.67 2.31 1.34 4.62 1 7 C0.01 7.33 -0.98 7.66 -2 8 C-1.47731534 5.23723823 -0.89130413 2.6739124 0 0 Z " fill="#D9D9D9" transform="translate(207,149)"/>
<path d="M0 0 C0.66 0.33 1.32 0.66 2 1 C1.67 1.33 1.34 1.66 1 2 C1.99 2.66 2.98 3.32 4 4 C2.02 4.33 0.04 4.66 -2 5 C-2 4.34 -2 3.68 -2 3 C-2.99 2.67 -3.98 2.34 -5 2 C-2.625 0.9375 -2.625 0.9375 0 0 Z " fill="#393938" transform="translate(112,148)"/>
</svg>
