<?xml version="1.0" encoding="UTF-8"?>
<svg version="1.1" xmlns="http://www.w3.org/2000/svg" width="729" height="235">
<path d="M0 0 C5.80087746 5.73115537 8.02836767 10.53588177 8.4375 18.75 C8.29191272 25.65255001 6.57691139 31.55229708 1.50634766 36.43969727 C-4.48846544 41.40253816 -11.34940092 43.66972826 -18.625 46.1875 C-19.95258651 46.65853199 -21.27964437 47.1310563 -22.60620117 47.60498047 C-25.36000047 48.58756603 -28.11594934 49.56373948 -30.87353516 50.53564453 C-36.7475764 52.61223516 -42.58981951 54.77470074 -48.43444824 56.93234253 C-57.19928105 60.16496213 -65.977023 63.36108387 -74.77148438 66.51220703 C-78.82052547 67.96402652 -82.86552188 69.42695315 -86.91064453 70.88964844 C-89.05263701 71.65950633 -91.1970227 72.42272541 -93.34326172 73.18066406 C-96.6715229 74.3564682 -99.99230469 75.55163973 -103.3125 76.75 C-104.83496338 77.27907959 -104.83496338 77.27907959 -106.38818359 77.81884766 C-113.39191434 80.33218946 -113.39191434 80.33218946 -118 86 C-118.41689829 88.11042929 -118.41689829 88.11042929 -118 90.125 C-117.9175 90.78757812 -117.835 91.45015625 -117.75 92.1328125 C-116.7095318 94.72314478 -115.36131637 95.5499066 -113 97 C-106.0930085 97.61571326 -99.57867284 95.02470906 -93.3125 92.4375 C-91.46214014 91.70269347 -89.61053019 90.97102864 -87.7578125 90.2421875 C-86.80938477 89.86803711 -85.86095703 89.49388672 -84.88378906 89.10839844 C-80.19319234 87.30554463 -75.4427144 85.68547624 -70.6875 84.0625 C-62.57131429 81.28000503 -54.52359435 78.3514916 -46.5 75.3125 C-15.2421233 63.54135342 -15.2421233 63.54135342 -4.84375 68.0390625 C2.02151715 71.61714665 5.6151786 76.69331315 8 84 C9.14021279 91.61463843 8.34752681 98.54722381 4 105 C-0.00513515 110.00384494 -4.72589262 112.47688114 -10.6328125 114.7890625 C-11.28317978 115.04399979 -11.93354706 115.29893707 -12.60362244 115.56159973 C-20.04508283 118.45181396 -27.56245241 121.13521159 -35.08444214 123.80703735 C-39.37371125 125.33102971 -43.65931419 126.86527582 -47.9453125 128.3984375 C-49.23057076 128.85785484 -49.23057076 128.85785484 -50.54179382 129.32655334 C-61.90961715 133.39316292 -73.24474635 137.54745717 -84.56933594 141.73291016 C-86.88690739 142.58888766 -89.2052891 143.44267406 -91.52441406 144.29443359 C-94.8723754 145.52445976 -98.21777542 146.76120367 -101.5625 148 C-102.55048584 148.36198486 -103.53847168 148.72396973 -104.55639648 149.09692383 C-112.4392547 151.54404715 -112.4392547 151.54404715 -118 157 C-118.55507176 161.91492121 -118.55507176 161.91492121 -116.30395508 166.07202148 C-113.87668413 168.10319227 -111.73417456 169.24492483 -108.82421875 170.47265625 C-107.33438477 171.10977539 -107.33438477 171.10977539 -105.81445312 171.75976562 C-104.26661133 172.40461914 -104.26661133 172.40461914 -102.6875 173.0625 C-101.66720703 173.49626953 -100.64691406 173.93003906 -99.59570312 174.37695312 C-97.61662312 175.21745446 -95.63516729 176.05238847 -93.65112305 176.88110352 C-91.43773956 177.81525367 -89.25060721 178.79024767 -87.0625 179.78125 C-82.89933726 181.43801885 -79.40662289 181.75858692 -75 181 C-71.9095106 178.99118189 -71.20316847 177.58410936 -70 174.125 C-70 170.86003438 -70.55630071 169.18136047 -72.42626953 166.52490234 C-75.84319128 163.21399741 -80.55290747 161.8831967 -84.9375 160.25 C-85.92685547 159.86457031 -86.91621094 159.47914063 -87.93554688 159.08203125 C-89.77914927 158.36541916 -91.62576866 157.65648365 -93.47631836 156.95800781 C-95.99659047 156.00129428 -98.49986207 155.00801615 -101 154 C-100 151 -100 151 -96.75390625 149.2890625 C-84.37772654 144.14651039 -84.37772654 144.14651039 -78.625 145.8125 C-77.05980803 146.48969585 -75.51704743 147.22090615 -74 148 C-73.13632813 148.35964844 -72.27265625 148.71929687 -71.3828125 149.08984375 C-64.06143306 152.31603024 -60.13229539 156.37509783 -56.125 163.1875 C-53.97163273 170.48502242 -53.8649572 177.37839645 -57.0625 184.375 C-60.62993486 190.66096171 -65.1639884 194.65748998 -72 197 C-82.2808548 198.25671234 -90.30807784 196.02780826 -99.625 191.875 C-100.7490625 191.400625 -101.873125 190.92625 -103.03125 190.4375 C-127.82755945 179.84323384 -127.82755945 179.84323384 -132.01953125 170.80078125 C-135.01171445 162.75331138 -134.52463516 155.7740945 -131 148 C-125.03006696 139.1303852 -115.99857066 136.00016968 -106.25 132.6875 C-104.41041638 132.04635558 -102.57086604 131.40511237 -100.73213196 130.76153564 C-99.38619696 130.29044754 -98.03990215 129.82038641 -96.69328308 129.35125732 C-86.24754425 125.70509123 -75.86507805 121.88135789 -65.47201538 118.08834839 C-62.64293899 117.05591846 -59.81371411 116.02389723 -56.984375 114.9921875 C-56.0593367 114.65480057 -55.1342984 114.31741364 -54.18122864 113.96980286 C-48.13540835 111.76811999 -42.07895325 109.59824206 -36.015625 107.4453125 C-33.74538793 106.63511207 -31.47545287 105.82407252 -29.20565796 105.01263428 C-27.79303057 104.50995641 -26.37917097 104.01072603 -24.96401978 103.51519775 C-23.0261956 102.83649693 -21.09290826 102.14611303 -19.16015625 101.453125 C-18.08386963 101.07317383 -17.00758301 100.69322266 -15.89868164 100.30175781 C-12.78082239 98.90157037 -10.50686076 97.31518474 -8 95 C-7.29239141 92.761862 -7.29239141 92.761862 -7.5 90.4375 C-7.51546875 89.29087891 -7.51546875 89.29087891 -7.53125 88.12109375 C-8.10174919 85.53958493 -8.96501427 84.64095663 -11 83 C-15.27598831 80.86200585 -20.6567539 82.59715173 -25.03622437 83.9105835 C-28.57916087 85.13693281 -32.09492917 86.42693071 -35.60546875 87.7421875 C-36.93288451 88.23096311 -38.26063623 88.71882715 -39.58869934 89.20584106 C-43.08705787 90.49144081 -46.58083622 91.78905637 -50.07373047 93.0894165 C-53.5159636 94.36872416 -56.96216069 95.63724693 -60.40820312 96.90625 C-64.50400952 98.41459274 -68.59871179 99.92563634 -72.68844604 101.45037842 C-78.93700027 103.77779388 -85.19021218 106.0818187 -91.48437405 108.28349876 C-94.28019878 109.26181138 -97.07180214 110.25188605 -99.8633976 111.24219131 C-101.18368552 111.70637952 -102.50617135 112.16436858 -103.83089256 112.61574936 C-105.65867451 113.23884575 -107.4786196 113.88478953 -109.2980957 114.53173828 C-110.33037796 114.8892215 -111.36266022 115.24670471 -112.42622375 115.61502075 C-115.56256265 117.30272157 -116.58235432 118.76090409 -118 122 C-117.75333604 125.56007221 -117.75333604 125.56007221 -117 129 C-117 130.32 -117 131.64 -117 133 C-118.60032137 133.84069415 -120.20541171 134.67231505 -121.8125 135.5 C-122.70582031 135.9640625 -123.59914063 136.428125 -124.51953125 136.90625 C-127 138 -127 138 -130 138 C-133.29635671 130.68620855 -135.45155449 124.91716348 -132.8125 117 C-131.12788777 112.8532622 -128.7244223 109.53438569 -126 106 C-126.763125 105.38125 -127.52625 104.7625 -128.3125 104.125 C-132.43923391 99.96299486 -133.86033791 94.38540905 -134.09765625 88.6328125 C-133.59285769 81.51638396 -130.53711187 75.44453424 -126 70 C-126.763125 69.360625 -127.52625 68.72125 -128.3125 68.0625 C-132.55575771 63.80718758 -133.69861741 58.36800603 -134.4375 52.5625 C-133.6130762 45.84933473 -131.55436726 40.03127468 -126.625 35.25 C-115.51539984 26.77906201 -100.00468515 22.98556914 -87 18.3125 C-85.04613652 17.60691262 -83.0924435 16.90085304 -81.13891602 16.19433594 C-78.2039939 15.13295169 -75.26897538 14.07184518 -72.33338928 13.01229858 C-63.85772777 9.95294196 -55.39501006 6.8591268 -46.9375 3.75 C-43.6243407 2.53272039 -40.3111466 1.31554442 -36.99731445 0.10009766 C-34.95862974 -0.64815626 -32.92073423 -1.39856317 -30.88354492 -2.15087891 C-29.90361572 -2.51101074 -28.92368652 -2.87114258 -27.9140625 -3.2421875 C-27.05119629 -3.5604248 -26.18833008 -3.87866211 -25.29931641 -4.20654297 C-16.44409941 -7.26233563 -7.24513088 -6.09249642 0 0 Z M-25.6328125 11.46484375 C-27.14353929 12.02982634 -28.6542822 12.59476582 -30.16503906 13.15966797 C-31.34918396 13.61221954 -31.34918396 13.61221954 -32.55725098 14.07391357 C-35.84845572 15.32166355 -39.15972443 16.51045606 -42.47212219 17.70056152 C-48.8706395 20.0006117 -55.25658668 22.33554343 -61.64282227 24.66943359 C-62.60745895 25.0219519 -63.57209564 25.37447021 -64.56596375 25.7376709 C-66.51698425 26.45074248 -68.46792238 27.16403946 -70.41877747 27.87756348 C-75.92013868 29.88663398 -81.42939047 31.87092069 -86.9498291 33.82695007 C-90.1909025 34.97766286 -93.42682924 36.14238964 -96.66192627 37.30978394 C-98.16490921 37.84822214 -99.6702251 38.38019721 -101.17791748 38.90530396 C-103.25919226 39.63099737 -105.33107326 40.37912313 -107.40234375 41.1328125 C-108.56241943 41.54418457 -109.72249512 41.95555664 -110.91772461 42.37939453 C-114.82483917 44.43368573 -116.46435709 46.4019825 -119 50 C-119.70326728 53.82889966 -119.32570442 55.41373205 -117.4375 58.8125 C-115.01718022 60.98458185 -113.46732221 61.95748039 -110.20751953 62.20117188 C-99.72083578 61.24551744 -88.98589569 55.96528705 -79.0625 52.4375 C-77.57284107 51.90989578 -76.08317625 51.38230819 -74.59350586 50.85473633 C-62.27171945 46.48301738 -49.98732079 42.01254028 -37.7265625 37.47265625 C-33.5261217 35.91902786 -29.31705763 34.40154814 -25.0859375 32.93359375 C-24.20413818 32.62333252 -23.32233887 32.31307129 -22.41381836 31.9934082 C-20.83535784 31.43986546 -19.25312853 30.89687618 -17.66625977 30.36791992 C-13.05102404 28.73400167 -10.04045614 26.86172878 -7 23 C-6.15993964 19.90586464 -6.3789324 17.13463364 -7 14 C-9.06604378 10.69432994 -10.39438583 10.14262619 -14.17529297 9.25219727 C-18.53107498 8.96498146 -21.6589878 9.89466454 -25.6328125 11.46484375 Z " fill="#010101" transform="translate(165,24)"/>
<path d="M0 0 C0.83265381 0.00523682 1.66530762 0.01047363 2.52319336 0.01586914 C3.42231445 0.0190918 4.32143555 0.02231445 5.24780273 0.02563477 C6.66609375 0.03820312 6.66609375 0.03820312 8.11303711 0.05102539 C9.06243164 0.05553711 10.01182617 0.06004883 10.98999023 0.06469727 C13.34356776 0.07652429 15.69702188 0.09300514 18.05053711 0.11352539 C22.35167224 8.52001984 26.34936968 17.03029279 30.22824097 25.63723755 C31.86530045 29.26855517 33.51140075 32.89577685 35.15600586 36.52368164 C35.65043938 37.61515755 35.65043938 37.61515755 36.15486145 38.72868347 C47.59773659 64.33072241 47.59773659 64.33072241 60.26147461 89.34008789 C61.05053711 91.11352539 61.05053711 91.11352539 61.05053711 94.11352539 C54.12053711 94.11352539 47.19053711 94.11352539 40.05053711 94.11352539 C37.08053711 87.51352539 34.11053711 80.91352539 31.05053711 74.11352539 C15.54053711 73.78352539 0.03053711 73.45352539 -15.94946289 73.11352539 C-16.93946289 76.08352539 -17.92946289 79.05352539 -18.94946289 82.11352539 C-20.81831349 86.19225771 -22.88695111 90.12600262 -24.94946289 94.11352539 C-31.54946289 94.11352539 -38.14946289 94.11352539 -44.94946289 94.11352539 C-44.11968728 89.96464731 -43.29333568 87.4234059 -41.46508789 83.73852539 C-40.94833496 82.68503906 -40.43158203 81.63155273 -39.89916992 80.54614258 C-39.05781494 78.84699707 -39.05781494 78.84699707 -38.19946289 77.11352539 C-33.30823079 67.10730609 -28.59864699 57.04098802 -24.07446289 46.86352539 C-23.5218225 45.6216578 -22.96916965 44.37979576 -22.41650391 43.13793945 C-21.38166819 40.81213153 -20.34691383 38.4862874 -19.31225586 36.16040039 C-16.60452531 30.10657072 -13.78398572 24.10884706 -10.94946289 18.11352539 C-10.22874563 16.56956488 -9.50873817 15.02527292 -8.78930664 13.48071289 C-8.05109113 11.89995302 -7.31281092 10.31922337 -6.57446289 8.73852539 C-6.22794678 7.993125 -5.88143066 7.24772461 -5.52441406 6.47973633 C-2.55769282 0.14894517 -2.55769282 0.14894517 0 0 Z M7.05053711 21.11352539 C4.90960767 25.91695112 2.77348804 30.72247495 0.6418457 35.5300293 C-0.08436577 37.16603591 -0.81190046 38.80145582 -1.54077148 40.4362793 C-2.58671898 42.78290163 -3.62792796 45.13157582 -4.66821289 47.48071289 C-4.99631958 48.21409882 -5.32442627 48.94748474 -5.66247559 49.70309448 C-7.35892041 53.27129154 -7.35892041 53.27129154 -7.94946289 57.11352539 C2.61053711 57.11352539 13.17053711 57.11352539 24.05053711 57.11352539 C16.67608106 38.82544094 16.67608106 38.82544094 8.05053711 21.11352539 C7.72053711 21.11352539 7.39053711 21.11352539 7.05053711 21.11352539 Z " fill="#010101" transform="translate(469.949462890625,72.886474609375)"/>
<path d="M0 0 C0.68128967 -0.00175232 1.36257935 -0.00350464 2.06451416 -0.00531006 C4.32688917 -0.00972789 6.58918663 -0.00679084 8.8515625 -0.00341797 C10.4171551 -0.00409103 11.9827476 -0.00506107 13.54833984 -0.00631714 C16.83366895 -0.00779402 20.11897092 -0.00563988 23.40429688 -0.00097656 C27.62476766 0.00472073 31.84517486 0.00144167 36.06564331 -0.00454903 C39.29972822 -0.00815491 42.53379795 -0.00701593 45.7678833 -0.00442123 C47.32448331 -0.00375204 48.88108468 -0.00458012 50.43768311 -0.00690079 C52.60953446 -0.00942777 54.78128146 -0.00558612 56.953125 0 C58.19143066 0.00079559 59.42973633 0.00159119 60.70556641 0.00241089 C63.4765625 0.12939453 63.4765625 0.12939453 64.4765625 1.12939453 C64.4765625 6.40939453 64.4765625 11.68939453 64.4765625 17.12939453 C47.6465625 17.12939453 30.8165625 17.12939453 13.4765625 17.12939453 C13.4765625 25.37939453 13.4765625 33.62939453 13.4765625 42.12939453 C28.3265625 42.12939453 43.1765625 42.12939453 58.4765625 42.12939453 C58.4765625 47.73939453 58.4765625 53.34939453 58.4765625 59.12939453 C43.6265625 59.12939453 28.7765625 59.12939453 13.4765625 59.12939453 C13.51616323 70.27382778 13.51616323 70.27382778 13.56665039 81.41821289 C13.56956964 82.81022058 13.57211817 84.20222912 13.57421875 85.59423828 C13.57933472 86.32324341 13.58445068 87.05224854 13.58972168 87.80334473 C13.59003261 89.57909529 13.53884765 91.35473661 13.4765625 93.12939453 C11.92049499 94.68546204 10.41698879 94.25910222 8.2578125 94.26220703 C6.98357422 94.26414063 6.98357422 94.26414063 5.68359375 94.26611328 C4.79027344 94.26224609 3.89695313 94.25837891 2.9765625 94.25439453 C2.08324219 94.25826172 1.18992188 94.26212891 0.26953125 94.26611328 C-0.57996094 94.26482422 -1.42945313 94.26353516 -2.3046875 94.26220703 C-3.08908203 94.2610791 -3.87347656 94.25995117 -4.68164062 94.25878906 C-6.5234375 94.12939453 -6.5234375 94.12939453 -7.5234375 93.12939453 C-7.62398863 90.27384872 -7.65959294 87.4424543 -7.65283203 84.58642578 C-7.65458435 83.69055756 -7.65633667 82.79468933 -7.65814209 81.87167358 C-7.66256197 78.89506116 -7.65962214 75.91850762 -7.65625 72.94189453 C-7.656923 70.88305652 -7.65789299 68.82421859 -7.65914917 66.76538086 C-7.66062633 62.44432826 -7.65847101 58.1232963 -7.65380859 53.80224609 C-7.6481113 48.25002907 -7.65139021 42.69786039 -7.65738106 37.14564514 C-7.66098619 32.89245232 -7.65984831 28.63927104 -7.65725327 24.38607788 C-7.65658386 22.33824661 -7.65741288 20.2904143 -7.65973282 18.24258423 C-7.66225856 15.38581545 -7.65841986 12.52912611 -7.65283203 9.67236328 C-7.65485626 8.81726166 -7.65688049 7.96216003 -7.65896606 7.08114624 C-7.6325073 -0.18168893 -7.1241488 0.00457716 0 0 Z " fill="#000000" transform="translate(232.5234375,72.87060546875)"/>
<path d="M0 0 C1.24132187 0.00222061 2.48264374 0.00444122 3.76158142 0.00672913 C4.44447739 0.0065831 5.12737335 0.00643707 5.83096313 0.00628662 C8.09815092 0.00698575 10.36525752 0.01477811 12.63243103 0.02259827 C14.20041865 0.02446245 15.76840685 0.02588635 17.33639526 0.02688599 C21.47103981 0.03071117 25.60564944 0.04054146 29.74028015 0.05158997 C33.95627876 0.06180407 38.172283 0.0663836 42.38829041 0.07142639 C50.66630304 0.08216373 58.94428055 0.09976053 67.22227478 0.12025452 C67.22227478 5.73025452 67.22227478 11.34025452 67.22227478 17.12025452 C50.39227478 17.12025452 33.56227478 17.12025452 16.22227478 17.12025452 C16.22227478 25.37025452 16.22227478 33.62025452 16.22227478 42.12025452 C19.45911072 42.10865295 22.69594666 42.09705139 26.03086853 42.08509827 C29.15171714 42.07730864 32.27256469 42.07123134 35.39341736 42.06532288 C37.56920351 42.06028144 39.74498625 42.05344844 41.92076111 42.04481506 C45.04080545 42.03274114 48.16080517 42.02702447 51.28086853 42.02259827 C52.7496067 42.01485634 52.7496067 42.01485634 54.24801636 42.00695801 C55.59930382 42.00684471 55.59930382 42.00684471 56.97789001 42.00672913 C57.77508957 42.00450851 58.57228912 42.0022879 59.39364624 42 C61.22227478 42.12025452 61.22227478 42.12025452 62.22227478 43.12025452 C62.3220251 45.63161556 62.36109661 48.10928866 62.34727478 50.62025452 C62.35114197 51.32279358 62.35500916 52.02533264 62.35899353 52.74916077 C62.34888856 57.99364074 62.34888856 57.99364074 61.22227478 59.12025452 C59.81002432 59.21312712 58.39318544 59.23772223 56.97789001 59.23377991 C56.07703171 59.23370438 55.1761734 59.23362885 54.24801636 59.23355103 C53.26885757 59.22838974 52.28969879 59.22322845 51.28086853 59.21791077 C50.28346146 59.21649582 49.28605438 59.21508087 48.25842285 59.21362305 C45.05884354 59.20800566 41.85933309 59.19545023 38.65977478 59.18275452 C36.49636433 59.17774176 34.33295279 59.17317846 32.16954041 59.16908264 C26.85373704 59.15887956 21.53808339 59.13930759 16.22227478 59.12025452 C16.22227478 70.67025452 16.22227478 82.22025452 16.22227478 94.12025452 C13.10789978 94.14087952 9.99352478 94.16150452 6.78477478 94.18275452 C5.3105304 94.19641052 5.3105304 94.19641052 3.8065033 94.21034241 C3.03749695 94.21283997 2.2684906 94.21533752 1.47618103 94.21791077 C0.68542175 94.22314758 -0.10533752 94.2283844 -0.9200592 94.23377991 C-2.77772522 94.12025452 -2.77772522 94.12025452 -3.77772522 93.12025452 C-3.87827635 90.26470871 -3.91388066 87.43331429 -3.90711975 84.57728577 C-3.90887207 83.68141754 -3.91062439 82.78554932 -3.91242981 81.86253357 C-3.91684969 78.88592114 -3.91390986 75.9093676 -3.91053772 72.93275452 C-3.91121072 70.87391651 -3.91218071 68.81507858 -3.91343689 66.75624084 C-3.91491405 62.43518825 -3.91275873 58.11415628 -3.90809631 53.79310608 C-3.90239902 48.24088906 -3.90567793 42.68872037 -3.91166878 37.13650513 C-3.91527391 32.8833123 -3.91413603 28.63013103 -3.91154099 24.37693787 C-3.91087158 22.32910659 -3.9117006 20.28127428 -3.91402054 18.23344421 C-3.91654628 15.37667544 -3.91270758 12.51998609 -3.90711975 9.66322327 C-3.90914398 8.80812164 -3.91116821 7.95302002 -3.91325378 7.07200623 C-3.88810344 0.1683255 -3.88810344 0.1683255 0 0 Z " fill="#000100" transform="translate(544.7777252197266,72.87974548339844)"/>
<path d="M0 0 C6.9675177 -1.71748905 14.22062219 -2.85372263 21 0 C27.46942217 6.2187908 31.34716748 14.85555944 35.34179688 22.79394531 C37.46193315 26.89312516 39.90251373 30.69239319 42.5 34.5 C46 39.7761194 46 39.7761194 46 42 C49.94723195 38.50048649 52.34411154 34.42551769 55 29.9375 C55.96485714 28.33255789 56.93105223 26.72841953 57.8984375 25.125 C58.40084961 24.29097656 58.90326172 23.45695312 59.42089844 22.59765625 C62.10639351 18.17995872 64.86304998 13.80766881 67.625 9.4375 C68.40617188 8.19697876 68.40617188 8.19697876 69.203125 6.93139648 C69.68523437 6.16899658 70.16734375 5.40659668 70.6640625 4.62109375 C71.09154785 3.9448999 71.5190332 3.26870605 71.95947266 2.57202148 C73 1 73 1 74 0 C75.4887186 -0.08669432 76.981445 -0.10703494 78.47265625 -0.09765625 C79.37177734 -0.09443359 80.27089844 -0.09121094 81.19726562 -0.08789062 C82.61555664 -0.07532227 82.61555664 -0.07532227 84.0625 -0.0625 C85.4865918 -0.05573242 85.4865918 -0.05573242 86.93945312 -0.04882812 C89.29303065 -0.0370011 91.64648477 -0.02052025 94 0 C92.67251074 3.57083088 91.08489016 6.67665564 89.05078125 9.89453125 C88.45700684 10.83876953 87.86323242 11.78300781 87.25146484 12.75585938 C86.61160645 13.76455078 85.97174805 14.77324219 85.3125 15.8125 C83.95691393 17.96476986 82.6014488 20.1171159 81.24609375 22.26953125 C80.54726074 23.37635254 79.84842773 24.48317383 79.12841797 25.62353516 C75.69392032 31.07192957 72.28537929 36.5364897 68.875 42 C67.66419093 43.93758026 66.45326008 45.87508443 65.2421875 47.8125 C64.69240234 48.71282959 64.14261719 49.61315918 63.57617188 50.54077148 C62 53 62 53 60.47070312 54.88305664 C55.33770194 61.47034783 56.49210389 69.52549123 56.75 77.4375 C56.79996601 79.65594283 56.84281585 81.87436884 56.88165283 84.09303284 C56.92002828 86.08760998 56.97664387 88.08181132 57.03417969 90.07592773 C57 93 57 93 56 94 C54.58429877 94.08651611 53.164405 94.10704904 51.74609375 94.09765625 C50.89208984 94.09443359 50.03808594 94.09121094 49.15820312 94.08789062 C48.26037109 94.07951172 47.36253906 94.07113281 46.4375 94.0625 C45.53580078 94.05798828 44.63410156 94.05347656 43.70507812 94.04882812 C41.46998686 94.03700225 39.23502563 94.0205222 37 94 C35.85998931 90.57996794 36.02263009 88.26572187 36.21875 84.671875 C37.1757492 64.92574076 37.1757492 64.92574076 28.39453125 47.79638672 C25.72139109 44.35294041 23.53678678 40.58076922 21.25 36.875 C20.23886111 35.27745314 19.22580383 33.68111904 18.2109375 32.0859375 C14.15276316 25.6770991 10.17009285 19.22171831 6.18847656 12.76513672 C5.41068848 11.50467529 5.41068848 11.50467529 4.6171875 10.21875 C4.15940918 9.47560547 3.70163086 8.73246094 3.22998047 7.96679688 C2.18284056 6.2923707 1.09547391 4.64321086 0 3 C0 2.01 0 1.02 0 0 Z " fill="#000101" transform="translate(616,73)"/>
<path d="M0 0 C1.18613892 0.00785522 1.18613892 0.00785522 2.39624023 0.01586914 C3.67724609 0.02070312 3.67724609 0.02070312 4.98413086 0.02563477 C5.88196289 0.03401367 6.77979492 0.04239258 7.70483398 0.05102539 C8.6065332 0.05553711 9.50823242 0.06004883 10.43725586 0.06469727 C12.67234712 0.07652315 14.90730835 0.09300319 17.14233398 0.11352539 C18.33481642 3.69097271 18.22177116 6.47035904 18.1640625 10.24707031 C18.15445496 10.96927261 18.14484741 11.69147491 18.13494873 12.43556213 C18.10197749 14.8218059 18.0616381 17.20786551 18.02124023 19.59399414 C17.99693728 21.24879813 17.97309381 22.90360893 17.94969177 24.5584259 C17.88686828 28.91339879 17.81779671 33.26825113 17.74743652 37.62310791 C17.66430667 42.84849776 17.58891451 48.07400424 17.51222992 53.29949188 C17.39486844 61.2376084 17.26766088 69.17551262 17.14233398 77.11352539 C33.31233398 77.11352539 49.48233398 77.11352539 66.14233398 77.11352539 C66.14233398 82.72352539 66.14233398 88.33352539 66.14233398 94.11352539 C57.29350675 94.13607857 48.44469846 94.15444173 39.59584904 94.16533756 C35.48739114 94.17056585 31.37895385 94.17766252 27.27050781 94.18896484 C23.3088657 94.19979564 19.34724346 94.20580263 15.38558769 94.20840263 C13.87085087 94.21025654 12.3561152 94.21387649 10.8413868 94.21925545 C8.72691586 94.22646846 6.61252805 94.22751623 4.49804688 94.22705078 C2.68935875 94.2303817 2.68935875 94.2303817 0.84413147 94.23377991 C-1.85766602 94.11352539 -1.85766602 94.11352539 -2.85766602 93.11352539 C-2.95821715 90.25797958 -2.99382145 87.42658516 -2.98706055 84.57055664 C-2.98881287 83.67468842 -2.99056519 82.77882019 -2.99237061 81.85580444 C-2.99679048 78.87919202 -2.99385066 75.90263847 -2.99047852 72.92602539 C-2.99115152 70.86718738 -2.99212151 68.80834945 -2.99337769 66.74951172 C-2.99485484 62.42845912 -2.99269953 58.10742716 -2.98803711 53.78637695 C-2.98233981 48.23415993 -2.98561872 42.68199125 -2.99160957 37.129776 C-2.9952147 32.87658318 -2.99407682 28.6234019 -2.99148178 24.37020874 C-2.99081238 22.32237747 -2.99164139 20.27454516 -2.99396133 18.22671509 C-2.99648707 15.36994631 -2.99264838 12.51325696 -2.98706055 9.65649414 C-2.98908478 8.80139252 -2.99110901 7.94629089 -2.99319458 7.0652771 C-2.96811633 0.18138705 -2.96811633 0.18138705 0 0 Z " fill="#010101" transform="translate(356.857666015625,72.886474609375)"/>
<path d="M0 0 C6.27 0 12.54 0 19 0 C20.86687577 1.86687577 20.12006498 4.54281448 20.12442017 7.02632141 C20.12082489 7.89234482 20.11722961 8.75836823 20.11352539 9.65063477 C20.11367142 10.55786285 20.11381744 11.46509094 20.1139679 12.39981079 C20.11326841 15.41369985 20.10547434 18.42752793 20.09765625 21.44140625 C20.0957922 23.52505967 20.09436824 25.60871354 20.09336853 27.69236755 C20.08954234 33.18823446 20.0797112 38.68407513 20.06866455 44.17993164 C20.0584526 49.78336227 20.05387137 55.38679713 20.04882812 60.99023438 C20.03808902 71.993503 20.02049141 82.99674521 20 94 C13.4 94 6.8 94 0 94 C0 62.98 0 31.96 0 0 Z " fill="#020202" transform="translate(312,73)"/>
</svg>
